<mxfile host="app.diagrams.net" modified="2021-08-06T07:43:47.089Z" agent="5.0 (Windows)" etag="sZuGmvpDifBvcmWQ0O2_" version="14.9.4" type="github">
  <diagram id="o9nsLf8sgRFmX-ZmG2kn" name="Page-1">
    <mxGraphModel dx="1220" dy="1117" grid="1" gridSize="10" guides="1" tooltips="1" connect="1" arrows="1" fold="1" page="1" pageScale="1" pageWidth="827" pageHeight="1169" math="0" shadow="0">
      <root>
        <mxCell id="0" />
        <mxCell id="1" parent="0" />
        <mxCell id="Hd0JQx4O3KQo4THyXu1A-7" value="" style="rounded=1;whiteSpace=wrap;html=1;strokeColor=#7EA6E0;shadow=0;glass=0;fillColor=none;" vertex="1" parent="1">
          <mxGeometry x="180" y="470" width="580" height="280" as="geometry" />
        </mxCell>
        <mxCell id="Hd0JQx4O3KQo4THyXu1A-1" value="" style="fontColor=#0066CC;verticalAlign=top;verticalLabelPosition=bottom;labelPosition=center;align=center;html=1;outlineConnect=0;gradientColor=none;gradientDirection=north;strokeWidth=1;shape=mxgraph.networks.radio_tower;fillColor=#7EA6E0;strokeColor=#7EA6E0;" vertex="1" parent="1">
          <mxGeometry x="70" y="560" width="55" height="100" as="geometry" />
        </mxCell>
        <mxCell id="Hd0JQx4O3KQo4THyXu1A-8" value="" style="aspect=fixed;pointerEvents=1;shadow=0;dashed=0;html=1;strokeColor=#6c8ebf;labelPosition=center;verticalLabelPosition=bottom;verticalAlign=top;align=center;fillColor=#dae8fc;shape=mxgraph.mscae.enterprise.internet_hollow;glass=0;strokeWidth=1;" vertex="1" parent="1">
          <mxGeometry x="380" y="498.09" width="361" height="223.82" as="geometry" />
        </mxCell>
      </root>
    </mxGraphModel>
  </diagram>
</mxfile>
